<?xml version="1.0" encoding="UTF-8"?>
<svg version="1.1" xmlns="http://www.w3.org/2000/svg" width="225" height="225">
<path d="M0 0 C74.25 0 148.5 0 225 0 C225 74.25 225 148.5 225 225 C150.75 225 76.5 225 0 225 C0 150.75 0 76.5 0 0 Z " fill="#E52026" transform="translate(0,0)"/>
<path d="M0 0 C74.25 0 148.5 0 225 0 C225 74.25 225 148.5 225 225 C150.75 225 76.5 225 0 225 C0 150.75 0 76.5 0 0 Z M119.9375 20.75 C118.12862305 21.16378906 118.12862305 21.16378906 116.28320312 21.5859375 C108.94986679 23.27430111 101.64849341 25.06438849 94.359375 26.93359375 C87.22438218 28.71734196 80.02464776 30.23882257 72.83984375 31.80664062 C70.63698541 32.2894057 68.43576616 32.7797163 66.23632812 33.27783203 C64.07945601 33.75912561 61.91635533 34.21331204 59.74804688 34.64013672 C53.31035213 36.01120145 47.85335184 37.3478898 44 43 C42.01759247 47.51091223 40.68577774 52.13140488 39.375 56.875 C38.99163429 58.19502844 38.60587698 59.51436457 38.21777344 60.83300781 C37.46250514 63.40828615 36.72048418 65.98614758 35.98535156 68.56738281 C34.81256802 72.65294689 33.54813393 76.70300123 32.25 80.75 C30.38934294 86.68880952 28.62166617 92.65087677 26.88061523 98.62548828 C25.04157572 104.91522107 23.09058086 111.16656862 21.11328125 117.4140625 C18.28433546 126.0374511 18.28433546 126.0374511 18 135 C20.74901142 139.66361701 24.10959412 143.47622252 27.8125 147.375 C28.89270818 148.5279145 29.97214029 149.68155662 31.05078125 150.8359375 C31.56463379 151.38475586 32.07848633 151.93357422 32.60791016 152.49902344 C34.27799566 154.29973997 35.89684913 156.13955331 37.5 158 C40.5889722 161.57351686 43.78840358 165.03712954 47 168.5 C50.21159642 171.96287046 53.4110278 175.42648314 56.5 179 C60.05133499 183.10568972 63.74239111 187.07752275 67.43505859 191.05566406 C71.43891346 195.37371995 75.36584943 199.75242976 79.2578125 204.171875 C81.82351297 206.86413469 82.7288765 206.98578239 86.54760742 207.18603516 C91.28554051 207.12064027 95.65286736 206.14891181 100.23828125 205.0234375 C101.10883652 204.81761047 101.97939178 204.61178345 102.87632751 204.39971924 C105.69035815 203.73281431 108.50134728 203.05392283 111.3125 202.375 C114.22981158 201.68054489 117.14784687 200.98919211 120.06594849 200.29806519 C121.9998424 199.8398651 123.93349868 199.38066089 125.86691284 198.92044067 C133.64398654 197.07192061 141.43978355 195.32835255 149.25 193.625 C152.28700743 192.94860483 155.32315828 192.26853548 158.35888672 191.58642578 C160.05912641 191.20890907 161.76118364 190.83944136 163.46533203 190.47998047 C165.58730294 190.03131967 167.69966933 189.55208431 169.8125 189.0625 C171.43091797 188.70865234 171.43091797 188.70865234 173.08203125 188.34765625 C178.17254117 185.99661753 181.00477412 182.54041446 183.04663086 177.32836914 C183.98322876 174.2369572 184.79192195 171.13683312 185.5625 168 C186.15344337 165.74405461 186.74718153 163.4888394 187.34375 161.234375 C187.62605469 160.15349609 187.90835938 159.07261719 188.19921875 157.95898438 C189.18191838 154.32778941 190.33038265 150.80418466 191.5625 147.25 C193.5863399 141.38418205 195.3247012 135.47206609 197 129.5 C199.10514408 121.99658302 201.38148704 114.59368758 203.921875 107.2265625 C207.5231928 97.51547199 207.5231928 97.51547199 205.87109375 87.71484375 C203.4636248 84.22175207 200.67421264 81.25115849 197.75 78.1875 C196.56947254 76.93438452 195.38977686 75.68048489 194.2109375 74.42578125 C193.64987305 73.82975098 193.08880859 73.2337207 192.51074219 72.61962891 C190.21013782 70.15320852 188.00741614 67.6080993 185.8046875 65.0546875 C182.93824352 61.79116037 179.98248483 58.60939208 177.03979492 55.41479492 C174.54858711 52.70529199 172.08831632 49.97730935 169.6875 47.1875 C165.63679512 42.50908299 161.37390547 38.02768325 157.13818359 33.51757812 C153.43501961 29.56620745 149.80799439 25.57261598 146.33203125 21.41796875 C143.64240578 18.55481905 142.0539616 18.00413833 138.12890625 17.703125 C131.90435423 17.84896383 125.97452135 19.32952439 119.9375 20.75 Z " fill="#E51E25" transform="translate(0,0)"/>
<path d="M0 0 C0.556875 0.55945313 1.11375 1.11890625 1.6875 1.6953125 C2.34105469 2.33855469 2.99460938 2.98179688 3.66796875 3.64453125 C4.33441406 4.36253906 5.00085938 5.08054687 5.6875 5.8203125 C6.73357422 6.94373047 6.73357422 6.94373047 7.80078125 8.08984375 C9.30474727 9.74340497 10.79507615 11.40944525 12.2734375 13.0859375 C14.85496422 16.0099969 17.48361325 18.88802647 20.125 21.7578125 C21.05615899 22.7719799 21.9871486 23.78630285 22.91796875 24.80078125 C23.3773584 25.3014209 23.83674805 25.80206055 24.31005859 26.31787109 C34.5787956 37.51847505 34.5787956 37.51847505 39.0625 42.6953125 C42.19775438 46.30605569 45.43694824 49.81380785 48.6875 53.3203125 C55.77352901 60.97933874 55.77352901 60.97933874 58.875 64.4453125 C59.40480469 65.03570312 59.93460938 65.62609375 60.48046875 66.234375 C63.21037624 69.82124374 62.91385094 73.50153657 62.6875 77.8203125 C61.8046875 81.046875 61.8046875 81.046875 60.5625 84.4453125 C58.44083237 90.45354122 56.58897579 96.49614115 54.875 102.6328125 C52.30041593 111.79324828 49.55902136 120.89471183 46.72607422 129.97851562 C45.02426567 135.44054935 43.36274831 140.90744108 41.796875 146.41015625 C41.49386475 147.45768066 41.19085449 148.50520508 40.87866211 149.58447266 C40.30898308 151.56085841 39.75171125 153.54087933 39.20922852 155.52490234 C38.82142212 156.85642334 38.82142212 156.85642334 38.42578125 158.21484375 C38.10154175 159.37270386 38.10154175 159.37270386 37.77075195 160.55395508 C35.70140219 164.88340603 32.96100455 167.32691385 28.5090332 169.05175781 C27.32656006 169.33116211 26.14408691 169.61056641 24.92578125 169.8984375 C24.27321854 170.05717346 23.62065582 170.21590942 22.94831848 170.37945557 C20.86547514 170.87967322 18.77780323 171.35233688 16.6875 171.8203125 C15.33898471 172.13066286 13.99051433 172.44120846 12.64208984 172.75195312 C8.39250899 173.71980744 4.13416891 174.64575155 -0.125 175.5703125 C-9.74804227 177.6712714 -19.35882898 179.804915 -28.93359375 182.1171875 C-29.7064119 182.30303406 -30.47923004 182.48888062 -31.27546692 182.68035889 C-34.9688607 183.56951332 -38.65953048 184.46812293 -42.34692383 185.38183594 C-58.48850931 189.32444864 -58.48850931 189.32444864 -63.52734375 186.640625 C-64.38005859 185.80144531 -64.38005859 185.80144531 -65.25 184.9453125 C-65.91257813 184.30207031 -66.57515625 183.65882813 -67.2578125 182.99609375 C-70.1879726 179.8932436 -73.07205678 176.75998906 -75.89453125 173.55859375 C-78.49741133 170.61090564 -81.14853841 167.71262687 -83.8125 164.8203125 C-89.41636548 158.72121718 -94.9546393 152.56468954 -100.484375 146.3984375 C-101.21140625 145.58890625 -101.9384375 144.779375 -102.6875 143.9453125 C-103.42484375 143.12417969 -104.1621875 142.30304688 -104.921875 141.45703125 C-106.62984887 139.57323654 -108.34640977 137.7014975 -110.078125 135.83984375 C-126.68218464 117.96465993 -126.68218464 117.96465993 -126.57128906 111.02832031 C-126.01086685 106.2467557 -124.23231593 101.73251467 -122.6875 97.1953125 C-121.94261196 94.9435999 -121.20046162 92.69097995 -120.4609375 90.4375 C-119.90937988 88.75865723 -119.90937988 88.75865723 -119.34667969 87.04589844 C-117.88942784 82.50075882 -116.58781492 77.919216 -115.3125 73.3203125 C-112.81352025 64.36015483 -110.02813467 55.50718747 -107.13500977 46.66674805 C-104.97138482 40.02583133 -103.07153239 33.41963929 -101.58984375 26.58984375 C-99.6676342 22.42211724 -97.29152942 20.10669898 -93.3125 17.8203125 C-88.72654936 16.22450427 -84.06359581 15.23616374 -79.3125 14.2578125 C-77.97247563 13.96580969 -76.63287823 13.67184103 -75.29370117 13.37597656 C-72.59327517 12.78321646 -69.8907247 12.2026399 -67.18505859 11.63427734 C-62.62857804 10.6765604 -58.07868396 9.69022951 -53.52929688 8.69946289 C-51.66594025 8.29580872 -49.80143706 7.8973912 -47.93554688 7.50561523 C-42.55596585 6.36648793 -37.26833375 5.01938459 -31.97045898 3.54736328 C-28.06377801 2.47874053 -24.13572357 1.53396122 -20.1875 0.6328125 C-19.45402344 0.45556641 -18.72054687 0.27832031 -17.96484375 0.09570312 C-5.41250926 -2.76111114 -5.41250926 -2.76111114 0 0 Z M-19.3203125 8.8671875 C-20.20040985 9.07966125 -21.0805072 9.29213501 -21.98727417 9.51104736 C-24.8053455 10.19211935 -27.62151178 10.88068273 -30.4375 11.5703125 C-34.10588272 12.46463022 -37.77513374 13.35526934 -41.4453125 14.2421875 C-42.80385094 14.57066429 -42.80385094 14.57066429 -44.18983459 14.90577698 C-51.78567983 16.72673859 -59.41309548 18.36071235 -67.06469727 19.9284668 C-80.90471871 22.21202016 -80.90471871 22.21202016 -93.3125 27.8203125 C-94.96124697 30.97469286 -95.8677633 34.27407871 -96.8125 37.6953125 C-97.10237793 38.67185791 -97.39225586 39.64840332 -97.69091797 40.65454102 C-98.58943818 43.70328429 -99.45414944 46.76004204 -100.3125 49.8203125 C-100.84549729 51.68644287 -101.37932107 53.55233742 -101.9140625 55.41796875 C-102.67643746 58.08470844 -103.43589195 60.75208648 -104.18579102 63.42236328 C-105.5768813 68.35681426 -107.07925015 73.2213284 -108.75 78.0703125 C-111.09419063 84.97222459 -113.17128904 91.94084258 -115.1875 98.9453125 C-115.51032959 100.0374707 -115.83315918 101.12962891 -116.16577148 102.25488281 C-116.45911377 103.28967773 -116.75245605 104.32447266 -117.0546875 105.390625 C-117.3213623 106.31633301 -117.58803711 107.24204102 -117.86279297 108.19580078 C-118.36718361 111.13944865 -118.2203978 112.98152935 -117.3125 115.8203125 C-116.05923913 117.68903506 -116.05923913 117.68903506 -114.3984375 119.30859375 C-113.50970947 120.23792725 -113.50970947 120.23792725 -112.60302734 121.18603516 C-111.97090332 121.82847168 -111.3387793 122.4709082 -110.6875 123.1328125 C-109.39499795 124.47966758 -108.10332043 125.82731443 -106.8125 127.17578125 C-105.89017578 128.13170166 -105.89017578 128.13170166 -104.94921875 129.10693359 C-103.13606845 131.0050077 -101.39500079 132.95180533 -99.6875 134.9453125 C-96.64510241 138.48190665 -93.48470224 141.9005992 -90.3125 145.3203125 C-86.55067319 149.37637324 -82.84635446 153.46505882 -79.23046875 157.65234375 C-76.07717482 161.21665766 -72.82472233 164.69035121 -69.57421875 168.16601562 C-67.32352911 170.5846232 -65.18027615 172.98861899 -63.13671875 175.58984375 C-61.33164566 178.01908522 -61.33164566 178.01908522 -58.3125 179.8203125 C-50.6243638 179.46907785 -43.31623249 177.49597824 -35.875 175.6328125 C-33.28671742 174.99631181 -30.69819854 174.36085125 -28.109375 173.7265625 C-27.4572554 173.56622025 -26.8051358 173.40587799 -26.133255 173.24067688 C-19.64350445 171.64774955 -13.13716721 170.13099411 -6.625 168.6328125 C-5.55934814 168.38587646 -4.49369629 168.13894043 -3.39575195 167.88452148 C1.42613306 166.77281639 6.24967582 165.69144294 11.09765625 164.69921875 C11.92241455 164.52737061 12.74717285 164.35552246 13.59692383 164.1784668 C15.09050694 163.87015335 16.5863214 163.57233521 18.0847168 163.28833008 C22.76149319 162.3186078 26.12963182 161.03764187 29.6875 157.8203125 C31.27514913 154.79333609 32.22678139 151.65513955 33.1875 148.3828125 C33.47955322 147.45049805 33.77160645 146.51818359 34.07250977 145.55761719 C36.28710648 138.40988167 38.33256883 131.20861134 40.34106445 124.00048828 C42.63239262 115.82638945 45.22628006 107.75779994 47.88452148 99.69628906 C53.03119888 85.53905577 53.03119888 85.53905577 53.6875 70.8203125 C51.84616257 67.94660894 49.57475811 65.68132466 47.125 63.3203125 C45.82350642 62.00070218 44.52271588 60.68039805 43.22265625 59.359375 C42.60148926 58.74094727 41.98032227 58.12251953 41.34033203 57.48535156 C39.49320318 55.62458069 37.7591434 53.69386487 36.0625 51.6953125 C33.02010241 48.15871835 29.85970224 44.7400258 26.6875 41.3203125 C22.92567319 37.26425176 19.22135446 33.17556618 15.60546875 28.98828125 C12.45217482 25.42396734 9.19972233 21.95027379 5.94921875 18.47460938 C3.69852911 16.0560018 1.55527615 13.65200601 -0.48828125 11.05078125 C-2.53941365 8.54286561 -4.13271594 6.96076944 -7.43701172 6.56738281 C-11.50730287 6.92540808 -15.3594812 7.88711595 -19.3203125 8.8671875 Z " fill="#FDF6F5" transform="translate(144.3125,19.1796875)"/>
<path d="M0 0 C1.875 0.59765625 1.875 0.59765625 4 2 C5.125 4.80859375 5.125 4.80859375 6 8.4375 C6.16387207 9.10507324 6.32774414 9.77264648 6.49658203 10.46044922 C7.02073694 12.63566705 7.51503472 14.81572794 8 17 C8.23154785 18.03906494 8.23154785 18.03906494 8.46777344 19.09912109 C9.48709642 23.73348488 10.44171065 28.37998621 11.38769531 33.02978516 C12.10439961 36.50642967 12.84488729 39.97768354 13.5859375 43.44921875 C14.0030476 45.41762823 14.41927985 47.38622059 14.83502197 49.35491943 C15.24294628 51.27922541 15.65633774 53.20236981 16.06982422 55.12548828 C16.32006348 56.31770996 16.57030273 57.50993164 16.828125 58.73828125 C17.0540332 59.80087158 17.27994141 60.86346191 17.51269531 61.95825195 C18.00428939 65.0267743 18.08709143 67.89809348 18 71 C11.64144927 71.42856807 6.46082286 69.87615196 0.4375 67.9375 C-1.06466064 67.46703247 -1.06466064 67.46703247 -2.59716797 66.98706055 C-5.73476984 66.0015538 -8.86760976 65.00193478 -12 64 C-13.98032069 63.37192881 -15.96078574 62.74431256 -17.94140625 62.1171875 C-21.64813624 60.94196736 -25.3521129 59.75855069 -29.0546875 58.5703125 C-34.25770251 56.90638392 -39.48682213 55.34216271 -44.734375 53.82421875 C-47 53 -47 53 -49 51 C-48.73080119 46.86165308 -47.37271792 44.8752476 -44.47265625 42.01171875 C-43.76302734 41.30595703 -43.05339844 40.60019531 -42.32226562 39.87304688 C-41.57654297 39.15181641 -40.83082031 38.43058594 -40.0625 37.6875 C-39.32064453 36.94693359 -38.57878906 36.20636719 -37.81445312 35.44335938 C-32.28078917 30 -32.28078917 30 -30 30 C-30 29.34 -30 28.68 -30 28 C-28.5949707 26.6184082 -28.5949707 26.6184082 -26.61328125 24.98828125 C-21.5219276 20.65967721 -16.87344967 15.94661047 -12.1875 11.1875 C-10.51666699 9.49117754 -8.8435903 7.79706127 -7.16796875 6.10546875 C-6.43860107 5.36449951 -5.7092334 4.62353027 -4.95776367 3.86010742 C-3 2 -3 2 0 0 Z " fill="#FEFBFB" transform="translate(122,74)"/>
<path d="M0 0 C6.19786519 0.74390848 12.26377496 1.79989195 18.36502075 3.11561584 C19.30530121 3.3139653 20.24558167 3.51231476 21.21435547 3.7166748 C24.17971802 4.34338787 27.14345956 4.97741333 30.10720825 5.61170959 C32.1331467 6.04123317 34.15918755 6.47027411 36.18533325 6.89881897 C41.11882503 7.94337866 46.05087824 8.9944935 50.98220825 10.04920959 C51.61070251 11.90145874 51.61070251 11.90145874 51.98220825 14.04920959 C49.92630005 16.41322327 49.92630005 16.41322327 46.98220825 19.04920959 C46.00073646 20.0267468 45.02673427 21.01183016 44.05960083 22.0035553 C41.24655523 24.85195043 38.4276244 27.69443648 35.60647583 30.5348053 C34.39149055 31.75994138 33.1782926 32.98685238 31.96682739 34.21546936 C30.21227532 35.99415037 28.45145603 37.7664073 26.6892395 39.53749084 C26.14652908 40.09052383 25.60381866 40.64355682 25.04466248 41.21334839 C23.72793221 42.53047312 22.35937825 43.79541577 20.98220825 45.04920959 C20.32220825 45.04920959 19.66220825 45.04920959 18.98220825 45.04920959 C18.98220825 45.70920959 18.98220825 46.36920959 18.98220825 47.04920959 C17.44314575 48.56483459 17.44314575 48.56483459 15.35720825 50.29920959 C12.628277 52.59421185 10.13269735 54.91482668 7.73220825 57.54920959 C6.82470825 58.37420959 5.91720825 59.19920959 4.98220825 60.04920959 C2.87416454 59.7681371 1.50684357 59.57384491 -0.01779175 58.04920959 C-0.30881837 55.39759137 -0.54166798 52.7630749 -0.73654175 50.10389709 C-0.79934326 49.3006601 -0.86214478 48.4974231 -0.92684937 47.66984558 C-1.1281331 45.08827842 -1.32334278 42.50629987 -1.51779175 39.92420959 C-1.71301792 37.36361349 -1.90958673 34.80313783 -2.10873413 32.24284363 C-2.23253975 30.64804223 -2.35400328 29.0530567 -2.4727478 27.45787048 C-2.81957721 22.95431893 -3.35823398 18.52016042 -4.01779175 14.04920959 C-4.12683583 11.94694106 -4.19191785 9.84176179 -4.20529175 7.73670959 C-4.21947144 6.70932678 -4.23365112 5.68194397 -4.2482605 4.62342834 C-3.9661148 1.47200435 -3.34154644 0.08149312 0 0 Z " fill="#FEFBFB" transform="translate(64.01779174804688,54.95079040527344)"/>
<path d="M0 0 C5.09285966 0.49297878 9.6597081 2.88103174 14.28125 4.9296875 C15.6179071 5.51618576 15.6179071 5.51618576 16.98156738 6.11453247 C18.86198009 6.94097464 20.74131267 7.76987825 22.61962891 8.60107422 C25.487154 9.86931849 28.3584898 11.12859811 31.23046875 12.38671875 C33.06012969 13.19217733 34.88956446 13.99814989 36.71875 14.8046875 C37.57408325 15.17979462 38.4294165 15.55490173 39.31066895 15.94137573 C47.71282311 19.66978693 47.71282311 19.66978693 51 22 C51.55859375 24.3671875 51.55859375 24.3671875 51 27 C49.34765625 29.5078125 49.34765625 29.5078125 47.0625 32.125 C46.23363281 33.09308594 45.40476563 34.06117187 44.55078125 35.05859375 C43.70902344 36.02925781 42.86726563 36.99992187 42 38 C40.57685852 39.72384168 39.16011191 41.45298387 37.75 43.1875 C36.65558594 44.52554688 36.65558594 44.52554688 35.5390625 45.890625 C32.39729681 49.73653541 29.25985015 53.58595104 26.125 57.4375 C25.56522461 58.12416748 25.00544922 58.81083496 24.42871094 59.51831055 C21.89246012 62.6370367 19.37398382 65.75444869 17 69 C15.125 68.875 15.125 68.875 13 68 C11.39595449 63.93274608 10.45958463 59.80505076 9.59765625 55.52734375 C9.34693359 54.29693359 9.09621094 53.06652344 8.83789062 51.79882812 C8.58201172 50.52458984 8.32613281 49.25035156 8.0625 47.9375 C5.90856033 37.27797761 3.63731081 26.66138765 1.05078125 16.09765625 C0.80714844 15.09605469 0.56351563 14.09445313 0.3125 13.0625 C0.06113281 12.04285156 -0.19023437 11.02320312 -0.44921875 9.97265625 C-1.01871472 6.89899361 -1.16796904 4.11877647 -1 1 C-0.67 0.67 -0.34 0.34 0 0 Z " fill="#FEFBFB" transform="translate(135,72)"/>
<path d="M0 0 C5.81201818 0.43864288 10.55654205 1.83137009 15.98828125 3.90625 C19.06971465 5.0253179 22.15360674 5.93691668 25.3125 6.8125 C31.71019805 8.59790411 38.04462254 10.55166184 44.375 12.5625 C45.30223877 12.85552002 46.22947754 13.14854004 47.18481445 13.45043945 C49.79565055 14.28360505 52.39782109 15.1402515 55 16 C55.79438477 16.24476074 56.58876953 16.48952148 57.40722656 16.74169922 C59.6015625 17.46484375 59.6015625 17.46484375 63 19 C63.71240234 21.09594727 63.71240234 21.09594727 64 23 C63.19820313 23.57105469 62.39640625 24.14210937 61.5703125 24.73046875 C60.42178368 25.5493511 59.27335511 26.36837407 58.125 27.1875 C57.50729736 27.62803711 56.88959473 28.06857422 56.25317383 28.52246094 C52.61898683 31.11798804 48.99386018 33.72539813 45.37890625 36.34765625 C44.59950684 36.91266846 43.82010742 37.47768066 43.01708984 38.05981445 C41.50463328 39.15714592 39.99317984 40.25586183 38.48291016 41.35620117 C36.33087941 42.9170441 34.16703475 44.46007363 32 46 C30.82751709 46.85368164 30.82751709 46.85368164 29.63134766 47.72460938 C28.85194824 48.27439453 28.07254883 48.82417969 27.26953125 49.390625 C26.57061768 49.89110352 25.8717041 50.39158203 25.15161133 50.90722656 C22.56046063 52.22323593 20.87038541 52.32602352 18 52 C15.14317205 49.22252839 14.16514291 45.99787636 13 42.25 C10.8540731 35.41879937 8.30387811 28.77672167 5.703125 22.109375 C4.8852198 19.98965928 4.06751528 17.86986613 3.25 15.75 C2.82589844 14.67492187 2.40179688 13.59984375 1.96484375 12.4921875 C1.56910156 11.45835937 1.17335938 10.42453125 0.765625 9.359375 C0.40243164 8.42577148 0.03923828 7.49216797 -0.33496094 6.53027344 C-1.03584151 3.86363386 -0.93652124 2.55482995 0 0 Z " fill="#FEFBFB" transform="translate(71,134)"/>
<path d="M0 0 C1 1 1 1 1.01953125 2.96875 C0.45011058 9.93072348 -0.89682759 16.89682759 -6 22 C-12.81034904 22.54075269 -19.05813094 21.1516072 -25.6875 19.6875 C-26.74517578 19.4603833 -27.80285156 19.2332666 -28.89257812 18.99926758 C-36.27782343 17.40513812 -43.6535175 15.76487763 -51 14 C-51 13.01 -51 12.02 -51 11 C-49.42318651 10.62105453 -47.84636084 10.24215971 -46.26953125 9.86328125 C-45.24827148 9.61787598 -44.22701172 9.3724707 -43.17480469 9.11962891 C-40.91913449 8.57815013 -38.66327249 8.03746979 -36.40722656 7.49755859 C-30.88130285 6.17485581 -25.35742118 4.84541643 -19.83984375 3.48828125 C-18.89455811 3.25778076 -17.94927246 3.02728027 -16.9753418 2.78979492 C-15.19574495 2.35569636 -13.41720186 1.91724837 -11.63989258 1.47387695 C-3.9576558 -0.38953305 -3.9576558 -0.38953305 0 0 Z " fill="#FDF5F5" transform="translate(129,36)"/>
<path d="M0 0 C4.47034665 -0.38511109 4.47034665 -0.38511109 6.80175781 1.31005859 C7.34670898 1.91672363 7.89166016 2.52338867 8.453125 3.1484375 C9.06800781 3.81939453 9.68289062 4.49035156 10.31640625 5.18164062 C11.27353516 6.26735352 11.27353516 6.26735352 12.25 7.375 C13.24580078 8.47231445 13.24580078 8.47231445 14.26171875 9.59179688 C16.186555 11.71737141 18.09398633 13.85755731 20 16 C20.9097597 17.00414575 21.82096895 18.00698244 22.734375 19.0078125 C26.71573673 23.3873104 30.62195703 27.8307184 34.4921875 32.30859375 C35.97371575 34.03104624 35.97371575 34.03104624 37.6953125 35.53515625 C39 37 39 37 39 40 C31.36258588 37.63383311 24.05444881 34.60644705 16.72338867 31.43920898 C14.67829871 30.55853767 12.62745514 29.69230185 10.57617188 28.82617188 C9.26264457 28.26129081 7.94948003 27.69556527 6.63671875 27.12890625 C5.45811279 26.62431885 4.27950684 26.11973145 3.06518555 25.59985352 C0.04677854 24.02441575 -1.86058336 22.63121427 -4 20 C-5.17674393 13.0866294 -2.18615058 6.49013452 0 0 Z " fill="#FEF7F7" transform="translate(138,41)"/>
<path d="M0 0 C0.66 0.33 1.32 0.66 2 1 C2.50244141 3.9206543 2.50244141 3.9206543 2.8515625 7.82421875 C2.94719986 8.87099541 2.94719986 8.87099541 3.04476929 9.93891907 C3.17859017 11.4273842 3.30772653 12.91627656 3.43261719 14.40551758 C3.62050561 16.63418895 3.82452696 18.8608971 4.03125 21.08789062 C4.41892776 25.3883266 4.73067255 29.69063513 5 34 C5.04572144 34.68000061 5.09144287 35.36000122 5.1385498 36.06060791 C5.25573429 37.98279645 5.32809387 39.90755917 5.3984375 41.83203125 C5.46683838 43.47715698 5.46683838 43.47715698 5.53662109 45.15551758 C5 48 5 48 2.69482422 50.34521484 C-0.72428179 52.44475285 -3.26118921 52.63308696 -7.25 52.8125 C-8.49265625 52.88082031 -9.7353125 52.94914062 -11.015625 53.01953125 C-14 53 -14 53 -15 52 C-14.97496273 44.91803071 -13.13192989 38.59659635 -10.75 32 C-8.05301388 24.26674133 -5.64909691 16.52747761 -3.59863281 8.59765625 C-2.72350903 5.2817215 -1.92251391 2.88377086 0 0 Z " fill="#FDF4F4" transform="translate(52,73)"/>
<path d="M0 0 C0.66 0 1.32 0 2 0 C1.25741512 5.31898006 -0.13481793 10.35388539 -1.625 15.5 C-1.88571289 16.40403564 -2.14642578 17.30807129 -2.41503906 18.23950195 C-4.45351544 25.24480907 -6.57069296 32.22476942 -8.75 39.1875 C-9.04342285 40.13753906 -9.3368457 41.08757812 -9.63916016 42.06640625 C-9.91808105 42.94554687 -10.19700195 43.8246875 -10.484375 44.73046875 C-10.72897461 45.50801514 -10.97357422 46.28556152 -11.22558594 47.08666992 C-12 49 -12 49 -14 51 C-18.13004043 50.81145468 -20.4240928 48.07643555 -23.25 45.3125 C-24.14203125 44.46300781 -25.0340625 43.61351562 -25.953125 42.73828125 C-28 40 -28 40 -28.50390625 36.91796875 C-27.91527494 33.50938282 -27.1170404 32.41493394 -24.6875 30 C-21.06296555 26.19615996 -17.77388283 22.27462799 -14.5625 18.125 C-13.6279886 16.9267834 -12.69309353 15.72886595 -11.7578125 14.53125 C-11.29922852 13.9434375 -10.84064453 13.355625 -10.36816406 12.75 C-8.24043664 10.02845286 -6.09814516 7.32059589 -3.9375 4.625 C-3.22464844 3.73039062 -2.51179688 2.83578125 -1.77734375 1.9140625 C-1.19082031 1.28242187 -0.60429687 0.65078125 0 0 Z " fill="#FEF8F7" transform="translate(182,115)"/>
<path d="M0 0 C4.59008475 1.8360339 8.37133036 5.78430696 11.08984375 9.8359375 C10.83984375 12.6328125 10.83984375 12.6328125 10.08984375 14.8359375 C0.32532176 17.65901359 -9.53434952 19.89965955 -19.47265625 22.0234375 C-20.69758789 22.28527832 -21.92251953 22.54711914 -23.18457031 22.81689453 C-28.41539623 23.92377595 -33.63051146 24.98616375 -38.91015625 25.8359375 C-37.59586626 21.89306753 -35.92176142 21.24311695 -32.47265625 18.9609375 C-31.29939652 18.17393543 -30.12760875 17.38473606 -28.95703125 16.59375 C-28.31572266 16.16094727 -27.67441406 15.72814453 -27.01367188 15.28222656 C-22.21583004 11.98343187 -17.53285774 8.52023858 -12.82836914 5.09033203 C-12.0883667 4.55263184 -11.34836426 4.01493164 -10.5859375 3.4609375 C-9.92505127 2.97882813 -9.26416504 2.49671875 -8.58325195 2 C-5.64609396 -0.0435385 -3.60549787 -0.56407366 0 0 Z " fill="#FEF8F7" transform="translate(147.91015625,160.1640625)"/>
<path d="M0 0 C0.77085938 -0.05414063 1.54171875 -0.10828125 2.3359375 -0.1640625 C3.40714844 -0.25494141 3.40714844 -0.25494141 4.5 -0.34765625 C7.99630838 0.63452225 9.72835236 3.38730461 11.7109375 6.2734375 C12.9689741 8.77012592 13.90776475 11.33396362 14.82421875 13.97265625 C15.08349655 14.68952103 15.34277435 15.4063858 15.60990906 16.14497375 C16.15085557 17.64801026 16.68584654 19.15320251 17.21508789 20.66040039 C18.02641117 22.96940048 18.85628253 25.27106949 19.68945312 27.57226562 C20.21462865 29.03867366 20.73875485 30.50545802 21.26171875 31.97265625 C21.50851883 32.66018478 21.75531891 33.34771332 22.00959778 34.05607605 C23.01597946 36.93493771 23.7109375 39.19888168 23.7109375 42.2734375 C20.81461876 40.97327234 18.85899444 39.63833327 16.72265625 37.296875 C16.18487549 36.71268799 15.64709473 36.12850098 15.09301758 35.52661133 C14.25420044 34.59691528 14.25420044 34.59691528 13.3984375 33.6484375 C12.81666748 33.01252686 12.23489746 32.37661621 11.63549805 31.72143555 C8.19657597 27.9514685 4.78934102 24.15507698 1.4765625 20.2734375 C0.04726034 18.65440497 -1.43386362 17.08121859 -2.9296875 15.5234375 C-3.39157471 15.03770264 -3.85346191 14.55196777 -4.3293457 14.05151367 C-5.66046366 12.65527025 -7.00376211 11.27066935 -8.34765625 9.88671875 C-10.2890625 7.2734375 -10.2890625 7.2734375 -10.63671875 4.50390625 C-10.2890625 2.2734375 -10.2890625 2.2734375 -9.2890625 1.2734375 C-6.1945321 0.69321305 -3.12304474 0.37305995 0 0 Z " fill="#FDF6F6" transform="translate(51.2890625,131.7265625)"/>
</svg>
